<mxfile host="app.diagrams.net" modified="2025-01-27T10:00:00.000Z" agent="5.0" etag="jkl012" version="24.7.17" type="device">
  <diagram name="Certificate Hierarchy" id="certificate-hierarchy">
    <mxGraphModel dx="1422" dy="794" grid="1" gridSize="10" guides="1" tooltips="1" connect="1" arrows="1" fold="1" page="1" pageScale="1" pageWidth="1169" pageHeight="827" math="0" shadow="0">
      <root>
        <mxCell id="0" />
        <mxCell id="1" parent="0" />
        
        <!-- Title -->
        <mxCell id="title" value="CertA Certificate Authority Hierarchy" style="text;html=1;strokeColor=none;fillColor=none;align=center;verticalAlign=middle;whiteSpace=wrap;rounded=0;fontSize=24;fontStyle=1;" vertex="1" parent="1">
          <mxGeometry x="400" y="20" width="400" height="40" as="geometry" />
        </mxCell>
        
        <!-- Root CA -->
        <mxCell id="root-ca" value="CertA Root CA&#xa;&#xa;Self-Signed Certificate&#xa;4096-bit RSA Key&#xa;10-year Validity&#xa;&#xa;Basic Constraints: CA=true, pathlen=0&#xa;Key Usage: KeyCertSign, CrlSign, DigitalSignature&#xa;Subject Key Identifier: SHA-1 hash" style="rounded=1;whiteSpace=wrap;html=1;fillColor=#d5e8d4;strokeColor=#82b366;fontSize=12;align=center;verticalAlign=top;" vertex="1" parent="1">
          <mxGeometry x="400" y="100" width="200" height="180" as="geometry" />
        </mxCell>
        
        <!-- Certificate Types -->
        <mxCell id="server-certs" value="Server Certificates&#xa;&#xa;2048-bit RSA Key&#xa;1-year Validity&#xa;&#xa;Basic Constraints: CA=false&#xa;Key Usage: DigitalSignature, KeyEncipherment&#xa;Extended Key Usage: Server Authentication&#xa;Subject Alternative Names: Multiple domains/IPs" style="rounded=1;whiteSpace=wrap;html=1;fillColor=#dae8fc;strokeColor=#6c8ebf;fontSize=11;align=center;verticalAlign=top;" vertex="1" parent="1">
          <mxGeometry x="100" y="350" width="150" height="160" as="geometry" />
        </mxCell>
        
        <mxCell id="client-certs" value="Client Certificates&#xa;&#xa;2048-bit RSA Key&#xa;1-year Validity&#xa;&#xa;Basic Constraints: CA=false&#xa;Key Usage: DigitalSignature, KeyEncipherment&#xa;Extended Key Usage: Client Authentication&#xa;Subject Alternative Names: Multiple domains/IPs" style="rounded=1;whiteSpace=wrap;html=1;fillColor=#fff2cc;strokeColor=#d6b656;fontSize=11;align=center;verticalAlign=top;" vertex="1" parent="1">
          <mxGeometry x="300" y="350" width="150" height="160" as="geometry" />
        </mxCell>
        
        <mxCell id="codesigning-certs" value="Code Signing Certificates&#xa;&#xa;2048-bit RSA Key&#xa;1-year Validity&#xa;&#xa;Basic Constraints: CA=false&#xa;Key Usage: DigitalSignature&#xa;Extended Key Usage: Code Signing&#xa;Subject Alternative Names: Multiple domains/IPs" style="rounded=1;whiteSpace=wrap;html=1;fillColor=#f8cecc;strokeColor=#b85450;fontSize=11;align=center;verticalAlign=top;" vertex="1" parent="1">
          <mxGeometry x="500" y="350" width="150" height="160" as="geometry" />
        </mxCell>
        
        <mxCell id="email-certs" value="Email Certificates&#xa;&#xa;2048-bit RSA Key&#xa;1-year Validity&#xa;&#xa;Basic Constraints: CA=false&#xa;Key Usage: DigitalSignature, KeyEncipherment&#xa;Extended Key Usage: Email Protection&#xa;Subject Alternative Names: Multiple domains/IPs" style="rounded=1;whiteSpace=wrap;html=1;fillColor=#e1d5e7;strokeColor=#9673a6;fontSize=11;align=center;verticalAlign=top;" vertex="1" parent="1">
          <mxGeometry x="700" y="350" width="150" height="160" as="geometry" />
        </mxCell>
        
        <mxCell id="wildcard-certs" value="Wildcard Certificates&#xa;&#xa;2048-bit RSA Key&#xa;1-year Validity&#xa;&#xa;Basic Constraints: CA=false&#xa;Key Usage: DigitalSignature, KeyEncipherment&#xa;Extended Key Usage: Server Authentication&#xa;Subject Alternative Names: *.domain.com" style="rounded=1;whiteSpace=wrap;html=1;fillColor=#ffe6cc;strokeColor=#d79b00;fontSize=11;align=center;verticalAlign=top;" vertex="1" parent="1">
          <mxGeometry x="900" y="350" width="150" height="160" as="geometry" />
        </mxCell>
        
        <!-- Certificate Examples -->
        <mxCell id="server-example" value="Example:&#xa;example.com&#xa;api.example.com&#xa;192.168.1.100" style="rounded=1;whiteSpace=wrap;html=1;fillColor=#f0f0f0;strokeColor=#666666;fontSize=10;align=center;" vertex="1" parent="1">
          <mxGeometry x="100" y="530" width="150" height="60" as="geometry" />
        </mxCell>
        
        <mxCell id="client-example" value="Example:&#xa;client.example.com&#xa;vpn.example.com" style="rounded=1;whiteSpace=wrap;html=1;fillColor=#f0f0f0;strokeColor=#666666;fontSize=10;align=center;" vertex="1" parent="1">
          <mxGeometry x="300" y="530" width="150" height="60" as="geometry" />
        </mxCell>
        
        <mxCell id="codesigning-example" value="Example:&#xa;MyApp.exe&#xa;MyLibrary.dll" style="rounded=1;whiteSpace=wrap;html=1;fillColor=#f0f0f0;strokeColor=#666666;fontSize=10;align=center;" vertex="1" parent="1">
          <mxGeometry x="500" y="530" width="150" height="60" as="geometry" />
        </mxCell>
        
        <mxCell id="email-example" value="Example:&#xa;user@example.com&#xa;admin@example.com" style="rounded=1;whiteSpace=wrap;html=1;fillColor=#f0f0f0;strokeColor=#666666;fontSize=10;align=center;" vertex="1" parent="1">
          <mxGeometry x="700" y="530" width="150" height="60" as="geometry" />
        </mxCell>
        
        <mxCell id="wildcard-example" value="Example:&#xa;*.example.com&#xa;Covers:&#xa;www.example.com&#xa;api.example.com&#xa;admin.example.com" style="rounded=1;whiteSpace=wrap;html=1;fillColor=#f0f0f0;strokeColor=#666666;fontSize=10;align=center;" vertex="1" parent="1">
          <mxGeometry x="900" y="530" width="150" height="80" as="geometry" />
        </mxCell>
        
        <!-- Connections -->
        <mxCell id="conn1" value="Signs" style="endArrow=classic;html=1;rounded=0;exitX=0.2;exitY=1;exitDx=0;exitDy=0;entryX=0.5;entryY=0;entryDx=0;entryDy=0;strokeWidth=3;strokeColor=#d6b656;" edge="1" parent="1" source="root-ca" target="server-certs">
          <mxGeometry width="50" height="50" relative="1" as="geometry">
            <mxPoint x="440" y="290" as="sourcePoint" />
            <mxPoint x="175" y="340" as="targetPoint" />
          </mxGeometry>
        </mxCell>
        
        <mxCell id="conn2" value="Signs" style="endArrow=classic;html=1;rounded=0;exitX=0.4;exitY=1;exitDx=0;exitDy=0;entryX=0.5;entryY=0;entryDx=0;entryDy=0;strokeWidth=3;strokeColor=#d6b656;" edge="1" parent="1" source="root-ca" target="client-certs">
          <mxGeometry width="50" height="50" relative="1" as="geometry">
            <mxPoint x="480" y="290" as="sourcePoint" />
            <mxPoint x="375" y="340" as="targetPoint" />
          </mxGeometry>
        </mxCell>
        
        <mxCell id="conn3" value="Signs" style="endArrow=classic;html=1;rounded=0;exitX=0.6;exitY=1;exitDx=0;exitDy=0;entryX=0.5;entryY=0;entryDx=0;entryDy=0;strokeWidth=3;strokeColor=#d6b656;" edge="1" parent="1" source="root-ca" target="codesigning-certs">
          <mxGeometry width="50" height="50" relative="1" as="geometry">
            <mxPoint x="520" y="290" as="sourcePoint" />
            <mxPoint x="575" y="340" as="targetPoint" />
          </mxGeometry>
        </mxCell>
        
        <mxCell id="conn4" value="Signs" style="endArrow=classic;html=1;rounded=0;exitX=0.8;exitY=1;exitDx=0;exitDy=0;entryX=0.5;entryY=0;entryDx=0;entryDy=0;strokeWidth=3;strokeColor=#d6b656;" edge="1" parent="1" source="root-ca" target="email-certs">
          <mxGeometry width="50" height="50" relative="1" as="geometry">
            <mxPoint x="560" y="290" as="sourcePoint" />
            <mxPoint x="775" y="340" as="targetPoint" />
          </mxGeometry>
        </mxCell>
        
        <mxCell id="conn5" value="Signs" style="endArrow=classic;html=1;rounded=0;exitX=1;exitY=1;exitDx=0;exitDy=0;entryX=0.5;entryY=0;entryDx=0;entryDy=0;strokeWidth=3;strokeColor=#d6b656;" edge="1" parent="1" source="root-ca" target="wildcard-certs">
          <mxGeometry width="50" height="50" relative="1" as="geometry">
            <mxPoint x="600" y="290" as="sourcePoint" />
            <mxPoint x="975" y="340" as="targetPoint" />
          </mxGeometry>
        </mxCell>
        
        <!-- Certificate Extensions -->
        <mxCell id="extensions" value="Certificate Extensions" style="rounded=1;whiteSpace=wrap;html=1;fillColor=#f5f5f5;strokeColor=#666666;fontSize=14;fontStyle=1;" vertex="1" parent="1">
          <mxGeometry x="50" y="650" width="200" height="40" as="geometry" />
        </mxCell>
        
        <mxCell id="basic-constraints" value="Basic Constraints&#xa;Defines CA vs end-entity certificates" style="rounded=1;whiteSpace=wrap;html=1;fillColor=#f5f5f5;strokeColor=#666666;fontSize=10;" vertex="1" parent="1">
          <mxGeometry x="50" y="700" width="120" height="40" as="geometry" />
        </mxCell>
        
        <mxCell id="key-usage" value="Key Usage&#xa;Specifies allowed key operations" style="rounded=1;whiteSpace=wrap;html=1;fillColor=#f5f5f5;strokeColor=#666666;fontSize=10;" vertex="1" parent="1">
          <mxGeometry x="180" y="700" width="120" height="40" as="geometry" />
        </mxCell>
        
        <mxCell id="extended-key-usage" value="Extended Key Usage&#xa;Defines certificate purpose" style="rounded=1;whiteSpace=wrap;html=1;fillColor=#f5f5f5;strokeColor=#666666;fontSize=10;" vertex="1" parent="1">
          <mxGeometry x="310" y="700" width="120" height="40" as="geometry" />
        </mxCell>
        
        <mxCell id="subject-key-id" value="Subject Key Identifier&#xa;Unique identifier for public key" style="rounded=1;whiteSpace=wrap;html=1;fillColor=#f5f5f5;strokeColor=#666666;fontSize=10;" vertex="1" parent="1">
          <mxGeometry x="440" y="700" width="120" height="40" as="geometry" />
        </mxCell>
        
        <mxCell id="san" value="Subject Alternative Names&#xa;Multiple domain names and IPs" style="rounded=1;whiteSpace=wrap;html=1;fillColor=#f5f5f5;strokeColor=#666666;fontSize=10;" vertex="1" parent="1">
          <mxGeometry x="570" y="700" width="120" height="40" as="geometry" />
        </mxCell>
        
        <mxCell id="authority-key-id" value="Authority Key Identifier&#xa;Links to CA certificate" style="rounded=1;whiteSpace=wrap;html=1;fillColor=#f5f5f5;strokeColor=#666666;fontSize=10;" vertex="1" parent="1">
          <mxGeometry x="700" y="700" width="120" height="40" as="geometry" />
        </mxCell>
        
        <!-- Security Features -->
        <mxCell id="security" value="Security Features" style="rounded=1;whiteSpace=wrap;html=1;fillColor=#f8cecc;strokeColor=#b85450;fontSize=14;fontStyle=1;" vertex="1" parent="1">
          <mxGeometry x="50" y="760" width="200" height="40" as="geometry" />
        </mxCell>
        
        <mxCell id="single-ca" value="Single CA Enforcement&#xa;Only one active CA per server" style="rounded=1;whiteSpace=wrap;html=1;fillColor=#f8cecc;strokeColor=#b85450;fontSize=10;" vertex="1" parent="1">
          <mxGeometry x="50" y="810" width="120" height="40" as="geometry" />
        </mxCell>
        
        <mxCell id="user-isolation" value="User Isolation&#xa;Each user owns their certificates" style="rounded=1;whiteSpace=wrap;html=1;fillColor=#f8cecc;strokeColor=#b85450;fontSize=10;" vertex="1" parent="1">
          <mxGeometry x="180" y="810" width="120" height="40" as="geometry" />
        </mxCell>
        
        <mxCell id="key-protection" value="Private Key Protection&#xa;Encrypted storage in database" style="rounded=1;whiteSpace=wrap;html=1;fillColor=#f8cecc;strokeColor=#b85450;fontSize=10;" vertex="1" parent="1">
          <mxGeometry x="310" y="810" width="120" height="40" as="geometry" />
        </mxCell>
        
        <mxCell id="validation" value="Certificate Validation&#xa;Proper X.509 extension validation" style="rounded=1;whiteSpace=wrap;html=1;fillColor=#f8cecc;strokeColor=#b85450;fontSize=10;" vertex="1" parent="1">
          <mxGeometry x="440" y="810" width="120" height="40" as="geometry" />
        </mxCell>
        
        <!-- Legend -->
        <mxCell id="legend" value="Certificate Types" style="text;html=1;strokeColor=none;fillColor=none;align=left;verticalAlign=top;whiteSpace=wrap;rounded=0;fontSize=14;fontStyle=1;" vertex="1" parent="1">
          <mxGeometry x="600" y="650" width="100" height="30" as="geometry" />
        </mxCell>
        
        <mxCell id="legend1" value="Root CA" style="rounded=1;whiteSpace=wrap;html=1;fillColor=#d5e8d4;strokeColor=#82b366;fontSize=10;" vertex="1" parent="1">
          <mxGeometry x="600" y="680" width="60" height="20" as="geometry" />
        </mxCell>
        
        <mxCell id="legend2" value="Server" style="rounded=1;whiteSpace=wrap;html=1;fillColor=#dae8fc;strokeColor=#6c8ebf;fontSize=10;" vertex="1" parent="1">
          <mxGeometry x="670" y="680" width="60" height="20" as="geometry" />
        </mxCell>
        
        <mxCell id="legend3" value="Client" style="rounded=1;whiteSpace=wrap;html=1;fillColor=#fff2cc;strokeColor=#d6b656;fontSize=10;" vertex="1" parent="1">
          <mxGeometry x="740" y="680" width="60" height="20" as="geometry" />
        </mxCell>
        
        <mxCell id="legend4" value="Code Signing" style="rounded=1;whiteSpace=wrap;html=1;fillColor=#f8cecc;strokeColor=#b85450;fontSize=10;" vertex="1" parent="1">
          <mxGeometry x="810" y="680" width="60" height="20" as="geometry" />
        </mxCell>
        
        <mxCell id="legend5" value="Email" style="rounded=1;whiteSpace=wrap;html=1;fillColor=#e1d5e7;strokeColor=#9673a6;fontSize=10;" vertex="1" parent="1">
          <mxGeometry x="880" y="680" width="60" height="20" as="geometry" />
        </mxCell>
        
        <mxCell id="legend6" value="Wildcard" style="rounded=1;whiteSpace=wrap;html=1;fillColor=#ffe6cc;strokeColor=#d79b00;fontSize=10;" vertex="1" parent="1">
          <mxGeometry x="950" y="680" width="60" height="20" as="geometry" />
        </mxCell>
        
      </root>
    </mxGraphModel>
  </diagram>
</mxfile>
